<?xml version="1.0" encoding="utf-8"?>
<!-- Generator: Adobe Illustrator 26.5.0, SVG Export Plug-In . SVG Version: 6.00 Build 0)  -->
<svg version="1.1" id="Capa_1" xmlns="http://www.w3.org/2000/svg" xmlns:xlink="http://www.w3.org/1999/xlink" x="0px" y="0px"
	 viewBox="0 0 100 100" style="enable-background:new 0 0 100 100;" xml:space="preserve">
<style type="text/css">
	.st0{fill:#FFFFFF;}
</style>
<path class="st0" d="M0.08,89.28c0-26.12,0-52.24,0-78.36c0.06-0.14,0.16-0.27,0.19-0.42C1.29,4.59,6.43,0.2,12.44,0.2
	c25.04-0.01,50.09-0.02,75.13,0c6.78,0,12.33,5.56,12.34,12.33c0.02,25.04,0.01,50.08,0,75.11c0,5.48-3.72,10.36-8.97,11.87
	c-0.58,0.17-1.16,0.32-1.75,0.48c-6.82,0-13.65,0-20.47,0c0-11.42,0-22.84,0-34.31c3.19,0,6.24,0,9.33,0
	c2.07-5.18,4.13-10.34,6.25-15.64c-5.3,0-10.41,0-15.58,0c0-4.05,0-8.01,0-11.97c0-2.57,0.93-3.54,3.49-3.57
	c2.63-0.03,5.26-0.01,7.89-0.01c0.34,0,0.69,0,1.01,0c0-5.27,0-10.42,0-15.6c-3.81,0-7.55-0.03-11.28,0.02
	c-1.49,0.02-2.99,0.13-4.46,0.36c-7.91,1.21-14.66,8.33-15.18,16.28c-0.29,4.43-0.15,8.89-0.21,13.34c0,0.38,0,0.75,0,1.24
	c-4.23,0-8.33,0-12.43,0c0,5.23,0,10.35,0,15.57c4.15,0,8.26,0,12.43,0c0,11.5,0,22.9,0,34.29c-13.06,0-26.13,0-39.19,0
	c-0.11-0.06-0.21-0.15-0.32-0.18c-4.96-0.96-8.21-3.87-9.85-8.62C0.42,90.57,0.27,89.92,0.08,89.28z"/>
<path class="st0" d="M48.3,89.28c0.18,0.64,0.33,1.29,0.55,1.92c1.64,4.75,4.89,7.66,9.85,8.62c0.11,0.02,0.22,0.12,0.32,0.18
	c-3.57,0-7.15,0-10.72,0C48.3,96.43,48.3,92.85,48.3,89.28z"/>
</svg>
