<?xml version="1.0" encoding="utf-8"?>
<!-- Generator: Adobe Illustrator 26.5.0, SVG Export Plug-In . SVG Version: 6.00 Build 0)  -->
<svg version="1.1" id="Capa_1" xmlns="http://www.w3.org/2000/svg" xmlns:xlink="http://www.w3.org/1999/xlink" x="0px" y="0px"
	 viewBox="0 0 100 100" style="enable-background:new 0 0 100 100;" xml:space="preserve">
<style type="text/css">
	.st0{fill:#FFFFFF;}
</style>
<g>
	<path class="st0" d="M83.4,99.98c-6.18,0-12.37,0-18.55,0c-0.14-0.07-0.27-0.16-0.42-0.2c-1.37-0.38-1.8-0.88-1.93-2.32
		c-0.05-0.55-0.09-1.1-0.09-1.66c-0.01-4.59-0.01-9.18,0-13.77c0.01-3.65-0.41-7.15-3.33-9.98c0.5-0.08,0.84-0.15,1.18-0.2
		c3.36-0.44,6.64-1.13,9.74-2.59c4.5-2.12,7.95-5.23,9.78-9.96c1.07-2.78,1.68-5.64,1.96-8.61c0.57-6.04-0.46-11.59-4.58-16.3
		c-0.19-0.22-0.32-0.66-0.23-0.91c1.22-3.51,1.08-7.01,0.06-10.54c-0.73-2.52-1.17-2.81-3.76-2.22c-0.03,0.01-0.06,0.02-0.09,0.03
		c-3.52,0.93-6.72,2.56-9.76,4.53c-0.58,0.38-1.1,0.5-1.81,0.32c-7.74-1.96-15.49-1.95-23.24-0.01c-0.46,0.12-1.08-0.02-1.52-0.24
		c-2.44-1.2-4.81-2.57-7.29-3.66c-1.37-0.6-2.92-0.85-4.4-1.13c-0.52-0.1-1.26-0.23-1.55,0.57c-1.45,3.98-1.95,8-0.52,12.1
		c0.19,0.54,0.11,0.88-0.26,1.3c-1.99,2.26-3.38,4.84-4.05,7.78c-1.16,5.11-0.66,10.15,0.83,15.1c1.22,4.02,3.35,7.46,6.9,9.87
		c3.59,2.44,7.58,3.79,11.86,4.37c0.81,0.11,1.61,0.24,2.57,0.39c-1.82,1.81-2.71,3.86-3.08,6.16c-0.04,0.26-0.31,0.59-0.55,0.7
		c-2.34,1.06-4.83,1.42-7.33,1.03c-2.83-0.45-4.87-2.24-6.32-4.64c-1.26-2.08-2.82-3.81-5.01-4.91c-1.42-0.72-2.9-1.16-4.5-0.77
		c-0.93,0.23-1.07,0.56-0.49,1.28c0.5,0.62,1.14,1.14,1.74,1.67c0.75,0.66,1.69,1.18,2.25,1.97c1.07,1.49,1.96,3.12,2.89,4.72
		c0.62,1.06,1.04,2.27,1.79,3.21c2.22,2.76,5.39,3.49,8.71,3.62c2.16,0.08,4.32-0.1,6.56-0.17c0.01,0.24,0.04,0.59,0.04,0.94
		c0.03,3.12,0.01,6.25,0.09,9.37c0.04,1.73-0.49,3.03-2.14,3.75c-6.31,0-12.63,0-18.94,0c-0.47-0.1-0.94-0.19-1.41-0.29
		c-8.9-1.79-15.18-9.39-15.18-18.46C-0.01,60.4,0,39.56,0.01,18.73c0-1.17,0.06-2.35,0.27-3.49C1.89,6.48,9.65-0.02,18.57-0.03
		c20.96-0.02,41.92-0.02,62.88,0c7.88,0.01,14.97,5.09,17.54,12.55c0.45,1.31,0.68,2.69,1.01,4.04c0,22.27,0,44.54,0,66.81
		c-0.06,0.15-0.15,0.29-0.17,0.45c-1.21,7.59-5.58,12.57-12.68,15.24C85.95,99.51,84.65,99.68,83.4,99.98z"/>
	<path class="st0" d="M28.61,82.13c-0.58-0.5-0.98-0.85-1.38-1.2c0.32-0.24,0.69-0.73,0.94-0.68c0.45,0.1,0.82,0.53,1.23,0.82
		C29.18,81.36,28.96,81.65,28.61,82.13z"/>
	<path class="st0" d="M32.27,82.71c-0.44-0.47-0.92-0.76-0.93-1.06C31.31,80.9,32,80.8,32.53,80.9c0.34,0.06,0.61,0.48,0.91,0.74
		C33.11,81.95,32.77,82.25,32.27,82.71z"/>
	<path class="st0" d="M36.27,79.98c0.47,0.52,0.73,0.81,1,1.11c-0.42,0.29-0.8,0.69-1.27,0.83c-0.2,0.06-0.56-0.42-0.84-0.65
		C35.48,80.9,35.79,80.53,36.27,79.98z"/>
	<path class="st0" d="M25.08,80.22c-0.51-0.63-0.9-1.06-1.18-1.55c-0.04-0.06,0.69-0.69,0.73-0.66c0.44,0.37,0.85,0.79,1.18,1.26
		C25.85,79.35,25.45,79.75,25.08,80.22z"/>
	<path class="st0" d="M22.59,77.44c-0.47-0.7-0.83-1.12-1.04-1.61c-0.05-0.11,0.41-0.43,0.63-0.66c0.34,0.38,0.76,0.72,1,1.15
		C23.26,76.47,22.91,76.86,22.59,77.44z"/>
	<path class="st0" d="M20.23,72.35c0.38,0.52,0.68,0.86,0.86,1.25c0.04,0.08-0.37,0.37-0.58,0.56c-0.31-0.34-0.64-0.66-0.89-1.04
		C19.58,73.06,19.91,72.75,20.23,72.35z"/>
	<path class="st0" d="M18.43,72.24c-0.34-0.37-0.58-0.63-0.82-0.89c0.18-0.14,0.44-0.43,0.53-0.39c0.31,0.15,0.56,0.41,0.8,0.66
		C18.96,71.63,18.67,71.94,18.43,72.24z"/>
</g>
</svg>
