<?xml version="1.0" encoding="utf-8"?>
<!-- Generator: Adobe Illustrator 26.5.0, SVG Export Plug-In . SVG Version: 6.00 Build 0)  -->
<svg version="1.1" id="Capa_1" xmlns="http://www.w3.org/2000/svg" xmlns:xlink="http://www.w3.org/1999/xlink" x="0px" y="0px"
	 viewBox="0 0 100 100" style="enable-background:new 0 0 100 100;" xml:space="preserve">
<style type="text/css">
	.st0{fill:#FFFFFF;}
</style>
<g>
	<path class="st0" d="M50.17,38.07c-6.59,0.01-11.85,5.32-11.83,11.94c0.02,6.55,5.33,11.8,11.92,11.78
		c6.56-0.02,11.81-5.31,11.8-11.9C62.06,43.34,56.75,38.06,50.17,38.07z"/>
	<path class="st0" d="M78.79,31.65c-1.04-5.25-4.05-8.68-9.3-10.04c-2.98-0.77-6.03-0.76-9.06-0.8c-5.53-0.07-11.06-0.05-16.59-0.03
		c-3.9,0.01-7.82-0.11-11.67,0.58c-5.36,0.96-8.91,3.98-10.31,9.35c-0.66,2.54-0.74,5.15-0.76,7.74c-0.06,7.67-0.06,15.33,0,23
		c0.02,2.24,0.21,4.5,0.56,6.72c0.56,3.6,2.31,6.54,5.43,8.53c2.37,1.51,5.05,2.1,7.81,2.2c5.11,0.2,10.22,0.27,15.32,0.39
		c0-0.04,0-0.08,0-0.13c2.58,0,5.16,0.05,7.74-0.01c3.57-0.09,7.16,0.06,10.69-0.66c4.94-1,8.28-3.84,9.78-8.73
		c0.74-2.43,0.87-4.94,0.9-7.44c0.07-7.2,0.08-14.4,0.06-21.6C79.37,37.7,79.39,34.65,78.79,31.65z M49.44,68.27
		c-10.39-0.46-17.99-9.12-17.57-19.06c0.45-10.48,9.21-17.96,18.96-17.61c10.33,0.37,18.03,9,17.72,18.93
		C68.16,60.89,59.52,68.72,49.44,68.27z M69.3,35.15c-2.41,0.01-4.31-1.86-4.31-4.24c-0.01-2.4,1.86-4.31,4.24-4.34
		c2.35-0.03,4.3,1.89,4.33,4.27C73.6,33.2,71.67,35.15,69.3,35.15z"/>
	<path class="st0" d="M99.33,9.84c-1.72-5.74-6.96-9.67-12.94-9.67c-24.26,0-48.53-0.01-72.79,0c-7.44,0-13.5,6.07-13.5,13.5
		c-0.01,24.24,0,48.47,0,72.71c0,6.68,4.69,12.25,11.27,13.42c0.15,0.03,0.28,0.12,0.42,0.19c25.47,0,50.94,0,76.42,0
		c0.61-0.17,1.23-0.32,1.84-0.51c5.31-1.71,8.55-5.29,9.67-10.76c0.03-0.15,0.12-0.28,0.19-0.42c0-25.48,0-50.95,0-76.43
		C99.71,11.19,99.53,10.51,99.33,9.84z M85.76,64.57c-0.05,0.25-0.1,0.5-0.14,0.75c-0.19,1.49-0.26,3.01-0.59,4.47
		c-1.82,8.14-6.81,13.16-14.96,15c-3.49,0.79-7.06,0.77-10.6,0.8c-6.2,0.06-12.4,0.06-18.6,0c-3.57-0.04-7.16-0.01-10.67-0.82
		c-8.05-1.85-13.01-6.8-14.85-14.86c-0.77-3.38-0.77-6.82-0.81-10.25c-0.06-5.23-0.04-10.45-0.02-15.68
		c0.01-4.48-0.08-8.97,0.72-13.4c0.81-4.47,2.8-8.32,6.29-11.32c3.63-3.11,7.95-4.37,12.6-4.73c1.5-0.12,3.01-0.19,4.51-0.29
		c7.62,0,15.24,0,22.86,0c0.55,0.05,1.11,0.09,1.66,0.14c2.07,0.18,4.17,0.25,6.22,0.58c8.62,1.35,14.89,7.89,15.96,16.55
		c0.14,1.12,0.28,2.25,0.42,3.37C85.76,44.77,85.76,54.67,85.76,64.57z"/>
</g>
</svg>
