<?xml version="1.0" encoding="utf-8"?>
<!-- Generator: Adobe Illustrator 26.5.0, SVG Export Plug-In . SVG Version: 6.00 Build 0)  -->
<svg version="1.1" id="Capa_1" xmlns="http://www.w3.org/2000/svg" xmlns:xlink="http://www.w3.org/1999/xlink" x="0px" y="0px"
	 viewBox="0 0 100 100" style="enable-background:new 0 0 100 100;" xml:space="preserve">
<style type="text/css">
	.st0{fill:#FFFFFF;}
</style>
<path class="st0" d="M91.52,100c-27.71,0-55.42,0-83.13,0c-0.17-0.07-0.34-0.16-0.52-0.2c-2.2-0.54-4.03-1.66-5.52-3.38
	c-1.22-1.4-1.82-3.08-2.35-4.8C0,63.91,0,36.21,0,8.5c0.07-0.17,0.16-0.34,0.2-0.52c1.04-4.47,5.07-7.86,9.46-7.86
	c26.85-0.01,53.71-0.01,80.56,0c5.11,0,9.67,4.56,9.68,9.67c0.02,26.85,0.02,53.69-0.01,80.54c0,2.85-1.27,5.18-3.33,7.1
	C95.12,98.78,93.36,99.46,91.52,100z M54.9,84.94c0-0.49,0-0.88,0-1.26c0-7.67,0-15.34,0.01-23.01c0-0.97,0.05-1.95,0.12-2.92
	c0.21-2.77,2.4-5.41,5.21-6.31c2.75-0.89,5.81-0.01,7.71,2.14c1.45,1.65,2.03,3.57,2.03,5.72c-0.01,8.16,0,16.32,0,24.48
	c0,0.38,0,0.76,0,1.14c5.04,0,9.96,0,14.91,0c0-0.4,0-0.73,0-1.05c0-8.94,0-17.88,0-26.82c0-6.16-2.48-11.11-7.47-14.66
	c-6-4.27-13.13-4.59-19.28,0.3c-1.15,0.91-2.21,1.94-3.25,2.86c0-1.63,0-3.49,0-5.36c-5.03,0-9.95,0-14.85,0
	c0,14.96,0,29.84,0,44.76C44.99,84.94,49.88,84.94,54.9,84.94z M15.08,40.15c0,14.99,0,29.89,0,44.78c4.96,0,9.85,0,14.78,0
	c0-14.95,0-29.84,0-44.78C24.92,40.15,20.03,40.15,15.08,40.15z M31.43,22.56c-0.09-4.88-3.7-8.89-8.93-8.91
	c-5.13-0.01-8.97,3.82-8.96,8.95c0.01,5.22,4.02,8.87,8.91,8.92C27.42,31.58,31.44,27.53,31.43,22.56z"/>
</svg>
