<?xml version="1.0" encoding="utf-8"?>
<!-- Generator: Adobe Illustrator 26.5.0, SVG Export Plug-In . SVG Version: 6.00 Build 0)  -->
<svg version="1.1" id="Capa_1" xmlns="http://www.w3.org/2000/svg" xmlns:xlink="http://www.w3.org/1999/xlink" x="0px" y="0px"
	 viewBox="0 0 100 100" style="enable-background:new 0 0 100 100;" xml:space="preserve">
<style type="text/css">
	.st0{fill:#FFFFFF;}
</style>
<path class="st0" d="M100,11.87c-0.19-0.68-0.37-1.35-0.57-2.03C97.7,4.1,92.46,0.17,86.49,0.17c-24.26,0-48.53-0.01-72.79,0
	c-7.44,0-13.5,6.07-13.5,13.5c-0.01,24.24,0,48.47,0,72.71c0,6.68,4.69,12.25,11.27,13.42c0.15,0.03,0.28,0.12,0.42,0.19
	c-3.96,0-7.92,0-11.89,0C0,66.67,0,33.35,0,0c33.33,0,66.67,0,100,0C100,3.94,100,7.91,100,11.87z"/>
<path class="st0" d="M88.3,100c0.61-0.17,1.23-0.32,1.84-0.51c5.31-1.71,8.55-5.29,9.67-10.76c0.03-0.15,0.12-0.28,0.19-0.42
	c0,3.9,0,7.8,0,11.7C96.1,100,92.2,100,88.3,100z"/>
<g>
	<path class="st0" d="M100,11.87c0,25.48,0,50.95,0,76.43c-0.06,0.14-0.16,0.28-0.19,0.42c-1.12,5.48-4.36,9.05-9.67,10.76
		c-0.61,0.19-1.23,0.34-1.84,0.51c-25.47,0-50.94,0-76.42,0c-0.14-0.06-0.28-0.16-0.42-0.19C4.88,98.63,0.2,93.06,0.19,86.39
		c0-24.24,0-48.47,0-72.71c0-7.43,6.06-13.5,13.5-13.5c24.26-0.01,48.53,0,72.79,0c5.97,0,11.22,3.93,12.94,9.67
		C99.63,10.51,99.81,11.19,100,11.87z M81.11,49.85c-0.21-1.93-0.3-3.89-0.65-5.79c-3.23-17.42-20.67-28.53-37.92-24.19
		c-18.85,4.74-28.7,25.6-20.41,43.18c0.26,0.55,0.3,1.32,0.18,1.93c-0.96,4.83-1.98,9.64-2.97,14.46c-0.28,1.36,0.36,1.99,1.72,1.68
		c4.82-1.12,9.64-2.27,14.47-3.37c0.49-0.11,1.1-0.05,1.56,0.15c5.91,2.67,12.06,3.48,18.43,2.37
		C70.21,77.73,80.94,64.89,81.11,49.85z"/>
	<path class="st0" d="M27.54,72.72c0.63-3.05,1.25-5.92,1.78-8.82c0.11-0.58,0.02-1.31-0.25-1.83c-2.24-4.25-3.51-8.72-3.16-13.55
		c0.65-8.99,4.89-15.81,12.8-20.06c14.62-7.86,32.4,0.94,35.31,17.32c2.3,12.98-6.63,25.67-19.62,27.91
		c-5.72,0.99-11.1,0.05-16.17-2.71c-0.73-0.4-1.39-0.49-2.22-0.28C33.26,71.41,30.49,72.03,27.54,72.72z M58.45,64.89
		c0.5-0.06,1.31-0.11,2.1-0.26c2.65-0.51,4.22-2.4,5.62-4.48c1.04-1.56,0.47-3.11-1.32-3.65c-1.89-0.56-3.8-1.07-5.69-1.62
		c-0.87-0.26-1.6-0.02-2.24,0.56c-0.36,0.33-0.69,0.69-1.03,1.03c-1.3,1.3-2.12,1.46-3.71,0.5c-3.46-2.07-6.42-4.73-8.93-7.88
		c-1.12-1.41-1.07-2.25,0-3.66c0.31-0.41,0.65-0.81,0.94-1.24c0.45-0.65,0.63-1.35,0.29-2.11c-0.86-1.96-1.69-3.93-2.59-5.87
		c-0.55-1.17-1.94-1.7-2.95-1c-2.06,1.43-3.77,3.23-4.26,5.81c-0.53,2.76,0.17,5.37,1.45,7.79c2.95,5.58,7.44,9.69,12.69,13.04
		C51.65,63.66,54.74,64.77,58.45,64.89z"/>
</g>
</svg>
